<svg xmlns="http://www.w3.org/2000/svg" xmlns:xlink="http://www.w3.org/1999/xlink" width="24" height="24" viewBox="0 0 24 24">
  <defs>
    <path id="_3487901159__a" d="M3.75 5.25h16.5a.75.75 0 1 1 0 1.5H3.75a.75.75 0 0 1 0-1.5zm0 4h8.5a.75.75 0 1 1 0 1.5h-8.5a.75.75 0 1 1 0-1.5zm0 4h16.5a.75.75 0 1 1 0 1.5H3.75a.75.75 0 1 1 0-1.5zm0 4h8.5a.75.75 0 1 1 0 1.5h-8.5a.75.75 0 1 1 0-1.5z">
    </path>
  </defs>
  <use fill="currentColor" xlink:href="#_3487901159__a" fill-rule="evenodd">
  </use>
</svg>