<svg xmlns="http://www.w3.org/2000/svg" width="100" height="100" viewBox="0 0 100 100"><g fill="none" fill-rule="evenodd"><path fill="#FFFFFF" fill-opacity=".1" d="M0 84h100v1H0v-1zm0-14h100v1H0v-1zm0-14h100v1H0v-1zm0-14h100v1H0v-1zm0-14h100v1H0v-1zm0-14h100v1H0v-1z"/><path fill="#37E5D4" d="M85 14h11a2 2 0 0 1 2 2v9H83v-9c0-1.1.9-2 2-2z"/><rect width="15" height="29" x="83" y="25" fill="#00BBEB"/><rect width="15" height="31" x="83" y="54" fill="#3089E5"/><rect width="15" height="25" x="63" y="60" fill="#3089E5"/><rect width="15" height="19" x="43" y="66" fill="#3089E5"/><rect width="15" height="10" x="23" y="75" fill="#3089E5"/><rect width="15" height="16" x="63" y="44" fill="#00BBEB"/><rect width="15" height="13" x="43" y="53" fill="#00BBEB"/><rect width="15" height="13" x="23" y="62" fill="#00BBEB"/><rect width="15" height="6" x="3" y="79" fill="#00BBEB"/><path fill="#37E5D4" d="M65 28h11a2 2 0 0 1 2 2v14H63V30c0-1.1.9-2 2-2zM45 42h11a2 2 0 0 1 2 2v9H43v-9c0-1.1.9-2 2-2zM25 56h11a2 2 0 0 1 2 2v4H23v-4c0-1.1.9-2 2-2zM5 70h11a2 2 0 0 1 2 2v7H3v-7c0-1.1.9-2 2-2z"/></g></svg>