<svg xmlns="http://www.w3.org/2000/svg" width="100" height="100" viewBox="0 0 100 100"><g fill="none" fill-rule="evenodd"><path fill="#FFFFFF" fill-opacity=".1" d="M0 84h100v1H0v-1zm0-14h100v1H0v-1zm0-14h100v1H0v-1zm0-14h100v1H0v-1zm0-14h100v1H0v-1zm0-14h100v1H0v-1z"/><polyline stroke="#3089E5" stroke-linecap="round" stroke-linejoin="round" stroke-width="3" points="9 83 29 65.5 50.143 35.5 70.971 44.773 90.972 39.334"/><polyline stroke="#00BBEB" stroke-linecap="round" stroke-linejoin="round" stroke-width="3" points="9.035 68 29.11 78 50.017 57.689 71.148 62.395 91 15"/><polyline stroke="#37E5D4" stroke-linecap="round" stroke-linejoin="round" stroke-width="3" points="9 59.118 29.012 42.256 50 48.707 71 30 91 27.861"/><circle cx="29" cy="43" r="3" fill="#37E5D4"/><circle cx="9" cy="59" r="3" fill="#37E5D4"/><circle cx="9" cy="68" r="3" fill="#00BBEB"/><circle cx="9" cy="83" r="3" fill="#3089E5"/><circle cx="29" cy="65" r="3" fill="#3089E5"/><circle cx="29" cy="78" r="3" fill="#00BBEB"/><circle cx="50" cy="48" r="3" fill="#37E5D4"/><circle cx="50" cy="58" r="3" fill="#00BBEB"/><circle cx="50" cy="36" r="3" fill="#3089E5"/><circle cx="71" cy="30" r="3" fill="#37E5D4"/><circle cx="91" cy="28" r="3" fill="#37E5D4"/><circle cx="91" cy="15" r="3" fill="#00BBEB"/><circle cx="91" cy="39" r="3" fill="#3089E5"/><circle cx="71" cy="44" r="3" fill="#3089E5"/><circle cx="71" cy="62" r="3" fill="#00BBEB"/></g></svg>