<svg xmlns="http://www.w3.org/2000/svg" width="100" height="100" viewBox="0 0 100 100"><g fill="none" fill-rule="evenodd"><path fill="#37E5D4" fill-rule="nonzero" d="M50 10a40 40 0 0 1 38.61 29.56L50 50V10z"/><path fill="#00D1E1" fill-rule="nonzero" d="M88.04 37.64A40 40 0 0 1 71.86 83.5L50 50l38.04-12.36z"/><path fill="#00BBEB" fill-rule="nonzero" d="M73.51 82.36a40 40 0 0 1-48.6-1.21L50 50l23.51 32.36z"/><path fill="#01A3ED" fill-rule="nonzero" d="M26.49 82.36a40 40 0 0 1-13.87-46.6L50 50 26.49 82.36z"/><path fill="#3089E5" fill-rule="nonzero" d="M11.96 37.64A40 40 0 0 1 50.4 10L50 50 11.96 37.64z"/></g></svg>