<?xml version="1.0" encoding="iso-8859-1"?>
<!-- Generator: Adobe Illustrator 18.1.1, SVG Export Plug-In . SVG Version: 6.00 Build 0)  -->
<svg version="1.1" id="Capa_1" xmlns="http://www.w3.org/2000/svg" xmlns:xlink="http://www.w3.org/1999/xlink" x="0px" y="0px"
	 viewBox="0 0 198.194 198.194" style="enable-background:new 0 0 198.194 198.194;" xml:space="preserve">
<g>
	<path style="fill:#010002;" d="M132.447,46.884h-88.02l7.267-7.267c4.531-4.531,4.531-11.873,0-16.41
		c-4.531-4.531-11.873-4.531-16.41,0l-27.07,27.07c-0.005,0.005-0.011,0.005-0.011,0.005L0,58.491l8.202,8.197
		c0,0,0.005,0.005,0.011,0.016L37.214,95.7c2.268,2.268,5.238,3.399,8.202,3.399c2.975,0,5.939-1.131,8.208-3.399
		c4.531-4.531,4.531-11.873,0-16.41l-9.197-9.197h88.02c23.459,0,42.544,19.091,42.544,42.544s-19.091,42.544-42.544,42.544H16.421
		c-6.413,0-11.607,5.194-11.607,11.602c0,6.407,5.194,11.602,11.607,11.602h116.026c36.257,0,65.747-29.496,65.747-65.747
		S168.703,46.884,132.447,46.884z"/>
</g>
<g>
</g>
<g>
</g>
<g>
</g>
<g>
</g>
<g>
</g>
<g>
</g>
<g>
</g>
<g>
</g>
<g>
</g>
<g>
</g>
<g>
</g>
<g>
</g>
<g>
</g>
<g>
</g>
<g>
</g>
</svg>
