<svg xmlns="http://www.w3.org/2000/svg" width="100" height="100" viewBox="0 0 100 100"><g fill="none" fill-rule="evenodd"><path fill="#FFFFFF" fill-opacity=".1" d="M4 15h1v69H4V15zm16 0h1v69h-1V15zm15 0h1v69h-1V15zm15 0h1v69h-1V15zm15 0h1v69h-1V15zm15 0h1v69h-1V15zm15 0h1v69h-1V15z"/><path fill="#37E5D4" d="M40 18h9a2 2 0 0 1 2 2v8a2 2 0 0 1-2 2h-9V18zm7 17h17a2 2 0 0 1 2 2v8a2 2 0 0 1-2 2H47V35zm18 17h14a2 2 0 0 1 2 2v8a2 2 0 0 1-2 2H65V52zm14 17h15a2 2 0 0 1 2 2v8a2 2 0 0 1-2 2H79V69z"/><rect width="34" height="12" x="45" y="69" fill="#00BBEB"/><rect width="24" height="12" x="41" y="52" fill="#00BBEB"/><rect width="18" height="12" x="29" y="35" fill="#00BBEB"/><rect width="18" height="12" x="22" y="18" fill="#00BBEB"/><rect width="41" height="12" x="4" y="69" fill="#3089E5"/><rect width="37" height="12" x="4" y="52" fill="#3089E5"/><rect width="25" height="12" x="4" y="35" fill="#3089E5"/><rect width="18" height="12" x="4" y="18" fill="#3089E5"/></g></svg>